<svg width="32" height="32" viewBox="0 0 32 32" fill="none" xmlns="http://www.w3.org/2000/svg">
<path d="M26.6664 5.3335H9.10645L11.7731 8.00016H26.6664V22.8935L29.0131 25.2402C29.2131 24.8668 29.3331 24.4535 29.3331 24.0002V8.00016C29.3331 6.5335 28.1331 5.3335 26.6664 5.3335Z" fill="white"/>
<path d="M23.9998 13.3335H17.1064L19.7731 16.0002H23.9998V13.3335Z" fill="white"/>
<path d="M1.38672 5.15993L2.98672 6.75994C2.78672 7.13327 2.66672 7.5466 2.66672 7.99994V23.9999C2.66672 25.4666 3.86672 26.6666 5.33339 26.6666H22.8934L26.8401 30.6133L28.7201 28.7333L3.26672 3.2666L1.38672 5.15993ZM5.33339 9.1066L9.56005 13.3333H8.00005V15.9999H10.6667V14.4399L14.8934 18.6666H8.00005V21.3333H17.5601L20.2267 23.9999H5.33339V9.1066Z" fill="white"/>
</svg>
