<svg width="32" height="32" viewBox="0 0 32 32" fill="none" xmlns="http://www.w3.org/2000/svg">
<path d="M15.987 2.6665C8.62699 2.6665 2.66699 8.63984 2.66699 15.9998C2.66699 23.3598 8.62699 29.3332 15.987 29.3332C23.3603 29.3332 29.3337 23.3598 29.3337 15.9998C29.3337 8.63984 23.3603 2.6665 15.987 2.6665ZM25.227 10.6665H21.2937C20.867 8.99984 20.2537 7.39984 19.4537 5.91984C21.907 6.75984 23.947 8.4665 25.227 10.6665ZM16.0003 5.3865C17.107 6.9865 17.9737 8.75984 18.547 10.6665H13.4537C14.027 8.75984 14.8937 6.9865 16.0003 5.3865ZM5.68033 18.6665C5.46699 17.8132 5.33366 16.9198 5.33366 15.9998C5.33366 15.0798 5.46699 14.1865 5.68033 13.3332H10.187C10.0803 14.2132 10.0003 15.0932 10.0003 15.9998C10.0003 16.9065 10.0803 17.7865 10.187 18.6665H5.68033ZM6.77366 21.3332H10.707C11.1337 22.9998 11.747 24.5998 12.547 26.0798C10.0937 25.2398 8.05366 23.5465 6.77366 21.3332ZM10.707 10.6665H6.77366C8.05366 8.45317 10.0937 6.75984 12.547 5.91984C11.747 7.39984 11.1337 8.99984 10.707 10.6665ZM16.0003 26.6132C14.8937 25.0132 14.027 23.2398 13.4537 21.3332H18.547C17.9737 23.2398 17.107 25.0132 16.0003 26.6132ZM19.1203 18.6665H12.8803C12.7603 17.7865 12.667 16.9065 12.667 15.9998C12.667 15.0932 12.7603 14.1998 12.8803 13.3332H19.1203C19.2403 14.1998 19.3337 15.0932 19.3337 15.9998C19.3337 16.9065 19.2403 17.7865 19.1203 18.6665ZM19.4537 26.0798C20.2537 24.5998 20.867 22.9998 21.2937 21.3332H25.227C23.947 23.5332 21.907 25.2398 19.4537 26.0798ZM21.8137 18.6665C21.9203 17.7865 22.0003 16.9065 22.0003 15.9998C22.0003 15.0932 21.9203 14.2132 21.8137 13.3332H26.3203C26.5337 14.1865 26.667 15.0798 26.667 15.9998C26.667 16.9198 26.5337 17.8132 26.3203 18.6665H21.8137Z" fill="white"/>
</svg>
