<?xml version="1.0" encoding="UTF-8"?>
<svg width="32px" height="32px" viewBox="0 0 32 32" version="1.1" xmlns="http://www.w3.org/2000/svg" xmlns:xlink="http://www.w3.org/1999/xlink">
    <!-- Generator: sketchtool 60.1 (101010) - https://sketch.com -->
    <title>DD85D590-3C57-43D6-9F7C-A531ED61C330</title>
    <desc>Created with sketchtool.</desc>
    <g id="Lendo-asset" stroke="none" stroke-width="1" fill="none" fill-rule="evenodd">
        <g id="Lendo-assets" transform="translate(-84.000000, -225.000000)" fill="#2878B5" fill-rule="nonzero">
            <g id="Linkedin" transform="translate(84.000000, 225.000000)">
                <path d="M15.9800246,3.37507799e-14 C7.15505544,3.37507799e-14 -1.19015908e-13,7.15505544 -1.19015908e-13,15.9800246 C-1.19015908e-13,24.8049938 7.15505544,31.9600493 15.9800246,31.9600493 C24.8049938,31.9600493 31.9600493,24.8049938 31.9600493,15.9800246 C31.9600493,7.15308419 24.8049938,3.37507799e-14 15.9800246,3.37507799e-14 Z M11.9850185,23.720345 L7.99001232,23.720345 L7.99001232,9.73779055 L11.9850185,9.73779055 L11.9850185,23.720345 Z M10.1113429,8.88088706 C9.07663244,8.88088706 8.23970431,8.04192197 8.23970431,7.0072115 C8.23970431,5.97250103 9.0786694,5.13353593 10.1113429,5.13353593 C11.1460534,5.13550719 11.9850185,5.97447228 11.9850185,7.0072115 C11.9850185,8.04192197 11.1460534,8.88088706 10.1113429,8.88088706 Z M25.9675072,23.720345 L21.972501,23.720345 L21.972501,15.075154 C21.972501,14.0623901 21.6828583,13.3533306 20.4384066,13.3533306 C18.3749651,13.3533306 17.9774949,15.075154 17.9774949,15.075154 L17.9774949,23.720345 L13.9824887,23.720345 L13.9824887,9.73779055 L17.9774949,9.73779055 L17.9774949,11.0741027 C18.5487639,10.6366817 19.9749651,9.73976181 21.972501,9.73976181 C23.2668912,9.73976181 25.9675072,10.5147926 25.9675072,15.1969117 L25.9675072,23.720345 Z" id="Shape"></path>
            </g>
        </g>
    </g>
</svg>