<?xml version="1.0" encoding="UTF-8"?>
<svg width="82px" height="82px" viewBox="0 0 82 82" version="1.1" xmlns="http://www.w3.org/2000/svg" xmlns:xlink="http://www.w3.org/1999/xlink">
    <!-- Generator: sketchtool 63.1 (101010) - https://sketch.com -->
    <title>30C6C5B5-AAEA-432B-8DB5-D1C2D3686487</title>
    <desc>Created with sketchtool.</desc>
    <g id="Page-1" stroke="none" stroke-width="1" fill="none" fill-rule="evenodd">
        <g id="Purchase-Guide-Lendo---Desktop" transform="translate(-1099.000000, -344.000000)">
            <g id="Group-3" transform="translate(950.000000, 304.000000)">
                <g id="creadit-card" transform="translate(149.000000, 40.000000)">
                    <rect id="bg-shop" fill="#F7F9FC" x="0" y="0" width="82" height="82" rx="10"></rect>
                    <path d="M17.7964286,23 C16.2522857,23 15,24.2682292 15,25.8320312 L15,56.9856771 C15,58.5501302 16.2522857,59.8177083 17.7964286,59.8177083 L63.7535714,59.8177083 C65.2983571,59.8177083 66.55,58.5501302 66.55,56.9856771 L66.55,25.8320313 C66.55,24.2682292 65.2983571,23 63.7535714,23 L17.7964286,23 Z" id="Path" fill="#FFFFFF"></path>
                    <path d="M65.6176643,26.7759766 C65.6176643,25.2121745 64.7832357,23.9439453 63.7540214,23.9439453 L17.7962357,23.9439453 C16.7670214,23.9439453 15.93195,25.2121745 15.93195,26.7759766 L15.93195,31.6080078 L65.6176643,31.6080078 L65.6176643,26.7759766 Z" id="Fill-1" fill="#FFFFFF"></path>
                    <path d="M16,40 L16,56.2711797 C16,57.2262039 16.8403537,58 17.8760782,58 L64.1239218,58 C65.1602933,58 66,57.2262039 66,56.2711797 L66,40 L16,40 Z" id="Fill-3" fill="#FFFFFF"></path>
                    <polygon id="Fill-12" fill="#0AC974" points="20.9547214 54.2349609 38.2742929 54.2349609 38.2742929 49.485612 20.9547214 49.485612"></polygon>
                    <path d="M16.8805598,31.4168906 L16.8805598,25.7691328 C16.8805598,25.2592304 17.3014161,24.8460886 17.8208397,24.8460886 L64.1791603,24.8460886 C64.6985839,24.8460886 65.1194402,25.2592304 65.1194402,25.7691328 L65.1194402,31.4168906 L16.8805598,31.4168906 Z M65.1194402,56.3174424 C65.1194402,56.7796011 64.6985839,57.1539114 64.1791603,57.1539114 L17.8208397,57.1539114 C17.3014161,57.1539114 16.8805598,56.7796011 16.8805598,56.3174424 L16.8805598,41.7 L65.1194402,41.7 L65.1194402,56.3174424 Z M17.8208397,23 C16.2632174,23 15,24.2400622 15,25.7691328 L15,56.2308672 C15,57.7605743 16.2632174,59 17.8208397,59 L64.1791603,59 C65.7374311,59 67,57.7605743 67,56.2308672 L67,25.7691328 C67,24.2400622 65.7374311,23 64.1791603,23 L17.8208397,23 Z" id="Fill-9" fill="#3B568B"></path>
                    <polygon id="Fill-14" fill="#9DE9C7" points="16.8642214 39.6138672 64.8642214 39.6138672 64.8642214 33.6138672 16.8642214 33.6138672"></polygon>
                </g>
            </g>
        </g>
    </g>
</svg>